<svg viewBox="0 0 18 18" fill="none" xmlns="http://www.w3.org/2000/svg">
<path d="M9.00001 6.31451C8.28922 6.31921 7.60888 6.60365 7.10626 7.10626C6.60365 7.60888 6.31921 8.28922 6.31451 9.00001C6.31451 10.4699 7.53015 11.6855 9.00001 11.6855C10.469 11.6855 11.6855 10.4699 11.6855 9.00001C11.6855 7.53104 10.469 6.31451 9.00001 6.31451Z" fill="currentColor"/>
<path d="M9 2.73383C2.1672 2.73383 0.113686 8.65714 0.0948877 8.71712L0 8.99999L0.0939926 9.28286C0.113686 9.34284 2.1672 15.2662 9 15.2662C15.8328 15.2662 17.8863 9.34284 17.9051 9.28286L18 8.99999L17.906 8.71712C17.8863 8.65714 15.8328 2.73383 9 2.73383ZM9 13.4758C4.20997 13.4758 2.35429 10.033 1.90491 8.99999C2.35608 7.96339 4.21265 4.52416 9 4.52416C13.79 4.52416 15.6457 7.96697 16.0951 8.99999C15.6439 10.0366 13.7873 13.4758 9 13.4758Z" fill="currentColor"/>
</svg>
