<svg width="10" height="10" viewBox="0 0 10 10" fill="none" xmlns="http://www.w3.org/2000/svg">
<path d="M9.30065 0.706172C9.2375 0.642889 9.16249 0.592682 9.0799 0.558426C8.99732 0.52417 8.90879 0.506537 8.81939 0.506537C8.72999 0.506537 8.64146 0.52417 8.55888 0.558426C8.47629 0.592682 8.40128 0.642889 8.33813 0.706172L5 4.03747L1.66187 0.699346C1.59867 0.636145 1.52364 0.586012 1.44107 0.551808C1.35849 0.517604 1.26999 0.5 1.18061 0.5C1.09123 0.5 1.00273 0.517604 0.920151 0.551808C0.837576 0.586012 0.762546 0.636145 0.699346 0.699346C0.636145 0.762546 0.586012 0.837576 0.551808 0.920151C0.517604 1.00273 0.5 1.09123 0.5 1.18061C0.5 1.26999 0.517604 1.35849 0.551808 1.44107C0.586012 1.52364 0.636145 1.59867 0.699346 1.66187L4.03747 5L0.699346 8.33813C0.636145 8.40133 0.586012 8.47636 0.551808 8.55893C0.517604 8.64151 0.5 8.73001 0.5 8.81939C0.5 8.90877 0.517604 8.99727 0.551808 9.07985C0.586012 9.16242 0.636145 9.23745 0.699346 9.30065C0.762546 9.36385 0.837576 9.41399 0.920151 9.44819C1.00273 9.4824 1.09123 9.5 1.18061 9.5C1.26999 9.5 1.35849 9.4824 1.44107 9.44819C1.52364 9.41399 1.59867 9.36385 1.66187 9.30065L5 5.96253L8.33813 9.30065C8.40133 9.36385 8.47636 9.41399 8.55893 9.44819C8.64151 9.4824 8.73001 9.5 8.81939 9.5C8.90877 9.5 8.99727 9.4824 9.07985 9.44819C9.16242 9.41399 9.23745 9.36385 9.30065 9.30065C9.36385 9.23745 9.41399 9.16242 9.44819 9.07985C9.4824 8.99727 9.5 8.90877 9.5 8.81939C9.5 8.73001 9.4824 8.64151 9.44819 8.55893C9.41399 8.47636 9.36385 8.40133 9.30065 8.33813L5.96253 5L9.30065 1.66187C9.56006 1.40247 9.56006 0.965577 9.30065 0.706172Z" fill="#EA334D"/>
</svg>
