<svg width="185" height="28" viewBox="0 0 185 28" fill="none" xmlns="http://www.w3.org/2000/svg">
<path fill-rule="evenodd" clip-rule="evenodd" d="M25.3256 6.41177C25.7839 6.50588 26.6535 6.8353 27.2646 7.12941C29.4153 8.2 31.084 10.3059 31.5659 12.6C31.9419 14.3765 31.6129 16.7059 30.7667 18.2353C28.5339 22.2471 23.8331 23.6471 19.7434 21.5176C17.0757 20.1294 15.5009 17.4941 15.5009 14.4118C15.5009 11.1529 17.2402 8.37647 20.1664 6.97647C21.6589 6.25883 23.598 6.04706 25.3256 6.41177ZM19.7669 14.5294C19.6729 12.7059 20.8246 11.1412 22.6696 10.6235C23.8918 10.2823 25.4313 10.7294 26.3715 11.7059C28.0873 13.4706 27.6877 16.4706 25.5606 17.6941C22.9987 19.1647 19.9196 17.4823 19.7669 14.5294Z" fill="url(#paint0_linear_1679_12989)"/>
<path fill-rule="evenodd" clip-rule="evenodd" d="M16.6878 4.23529V2.11765V0H8.34392H0V2.11765V4.23529H3.05552H6.11104V13.2941V22.3529H8.34392H10.5768V13.2941V4.23529H13.6323H16.6878ZM130.447 22.3529V14.0588C130.447 9.49412 130.435 5.76471 130.424 5.77647C130.4 5.77647 129.425 6.10588 128.25 6.50588L126.099 7.23529V14.7882V22.3529H128.273H130.447ZM61.1104 10.2118V8.10588V6L60.6168 6.01176C57.0677 6.14118 53.5421 8.78824 52.3552 12.2C51.8968 13.5176 51.8263 14.3412 51.8263 18.4353V22.3529H53.9299H56.0335L56.0806 18.3765C56.1276 14.6235 56.1511 14.3765 56.3979 13.6706C56.7622 12.6824 57.526 11.6706 58.3252 11.1412C59.1126 10.6118 59.3594 10.5176 60.3465 10.3412L61.1104 10.2118ZM68.1734 6.76471C67.4917 7 67.4565 7 67.4565 6.58824V6.2353H65.3411H63.2258V14.2941V22.3529H65.3411H67.4565V17.6118C67.4565 12.8941 67.4565 12.8824 67.7385 12.2824C68.5259 10.5882 70.606 10.2471 71.9693 11.6C72.6274 12.2588 72.6274 12.2824 72.6274 17.5294V22.3529H74.8015H76.9756V17.5529C76.9756 12.2708 76.9874 12.2588 77.7512 11.4824L77.7512 11.4824C78.9617 10.2706 81.1828 10.7059 81.9232 12.2941C82.123 12.7294 82.1465 13.1412 82.1465 17.5529V22.3529H84.2618H86.389L86.3537 17.0824C86.3185 11.9647 86.3067 11.8 86.0599 11.1294C85.2843 9.08235 83.6037 7.41177 81.6882 6.81177C79.5611 6.14118 77.1989 6.54118 75.4596 7.85883L74.825 8.34118L74.2256 7.88235C73.3677 7.2353 72.2631 6.74118 71.2994 6.57647C70.324 6.41177 68.9137 6.49412 68.1734 6.76471ZM100.01 6.88235C99.8215 6.78824 99.2221 6.6 98.6933 6.47059C93.6752 5.27059 88.8686 9.09412 88.8216 14.3529C88.8099 15.8235 88.9862 16.6588 89.6325 17.9882C90.0673 18.8941 90.3259 19.2588 91.1133 20.0588C92.218 21.1647 93.2639 21.8 94.6154 22.1882C96.3899 22.7059 98.1292 22.6588 99.7627 22.0471C100.174 21.8941 100.527 21.7647 100.55 21.7647C100.574 21.7647 100.597 21.8941 100.597 22.0588V22.3529H102.712H104.828V14.2941V6.2353H102.712H100.597V6.64706C100.597 7.10588 100.503 7.14118 100.01 6.88235ZM112.702 7.18824C112.572 7.22353 112.514 7.11765 112.49 6.72941L112.455 6.2353H110.34H108.236V14.2941V22.3529H110.351H112.467V17.9412C112.467 13.1765 112.502 12.8706 113.125 12.0353C114.359 10.4 117.097 10.7176 118.037 12.6L118.343 13.2235V17.7882V22.3529H120.458H122.573V17.6118C122.573 12.3294 122.55 12.1412 121.774 10.5882C121.469 9.96471 121.081 9.4353 120.458 8.81177C119.036 7.36471 117.449 6.70588 115.405 6.71765C114.535 6.71765 114.124 6.78824 112.702 7.18824ZM149.368 13.2471C148.898 10.1412 146.877 7.68235 143.974 6.67059C143.116 6.36471 142.763 6.30588 141.612 6.28235C139.778 6.2353 138.697 6.48235 137.322 7.24706C135.301 8.36471 133.808 10.3412 133.326 12.5412C133.021 13.9059 133.127 15.7529 133.585 17.0706C134.666 20.1765 137.487 22.3529 140.73 22.5529C141.964 22.6353 143.363 22.4 144.397 21.9412C144.761 21.7765 145.067 21.6471 145.09 21.6471C145.114 21.6471 145.137 23.0706 145.137 24.8235C145.137 26.5647 145.172 28 145.231 28C145.278 28 146.242 27.6941 147.37 27.3176L149.427 26.6235L149.462 20.3412C149.474 16.3765 149.45 13.7647 149.368 13.2471ZM183.837 10.2353C182.885 8.6 181.157 7.2353 179.277 6.6353C177.232 5.98824 174.905 6.24706 172.907 7.35294C171.803 7.96471 170.345 9.45882 169.793 10.5294C168.618 12.8 168.559 15.7294 169.652 17.9059C171.144 20.8941 174.024 22.6 177.279 22.4353C178.583 22.3647 179.524 22.1059 180.746 21.4588C181.592 21.0235 182.685 20.1647 182.685 19.9529C182.685 19.8824 182.027 19.2 181.228 18.4471L179.77 17.0588L179.336 17.4118C177.831 18.6 175.739 18.5176 174.282 17.2235C173.965 16.9294 173.695 16.6353 173.695 16.5765C173.695 16.5176 176.045 16.4706 179.347 16.4706H185L184.953 14.6706C184.882 12.6235 184.624 11.6 183.837 10.2353ZM38.5583 16.2706C38.4761 15.9882 38.429 14.0588 38.429 11.0824V6.35294H36.3137H34.1866L34.2218 11.6706L34.2222 11.7146C34.2688 16.9299 34.2696 17.0138 34.5391 17.7529C34.9034 18.7412 35.8319 20.1059 36.584 20.7647C37.3244 21.4118 38.5113 22.0471 39.4397 22.2941C40.3446 22.5412 42.1544 22.5412 43.0476 22.3059C44.6106 21.8824 46.0561 20.9294 46.9492 19.7294C47.6779 18.7765 47.9129 18.2824 48.195 17.2118C48.3947 16.3882 48.4182 15.8824 48.4182 11.3294V6.35294H46.3029H44.1875V10.9765C44.1875 16.3647 44.164 16.5294 43.2591 17.4235C42.6715 18.0118 42.1309 18.2353 41.2495 18.2353C40.1566 18.2353 38.8286 17.2588 38.5583 16.2706ZM157.054 16.5412C156.772 15.9412 156.772 15.9294 156.772 11.1412V6.35294H154.598H152.423V11.2588C152.423 16.6824 152.47 17.1647 153.129 18.4941C153.822 19.8941 154.985 21.0941 156.302 21.7647C157.947 22.6 160.18 22.7765 161.884 22.1882C164.246 21.3765 165.903 19.5647 166.526 17.1059C166.737 16.2706 166.761 15.7882 166.761 11.2706V6.35294H164.587H162.413V11.1765C162.413 15.4753 162.413 16.3066 162.024 16.8687C161.931 17.0034 161.815 17.1227 161.672 17.2706C160.239 18.7765 157.923 18.4118 157.054 16.5412ZM93.3226 13.0118C93.781 11.7765 94.9797 10.8118 96.3547 10.5882C97.4358 10.4118 98.4113 10.6706 99.3867 11.3882C99.7392 11.647 99.9978 12 100.315 12.647C100.703 13.447 100.762 13.647 100.762 14.447C100.762 15.5294 100.421 16.3882 99.7157 17.0941C98.6345 18.1529 96.907 18.5294 95.5203 18C93.6282 17.2941 92.594 14.9412 93.3226 13.0118ZM139.649 10.9412C138.274 11.6353 137.475 12.9294 137.475 14.4941C137.475 15.9294 138.333 17.2118 139.72 17.8706C140.272 18.1294 140.542 18.1765 141.377 18.1765C142.223 18.1765 142.458 18.1294 142.963 17.8588C144.843 16.8706 145.619 14.6588 144.749 12.7882C144.127 11.4588 142.904 10.6823 141.318 10.6118C140.46 10.5765 140.319 10.6 139.649 10.9412ZM173.93 11.8824C174.247 11.4353 175.117 10.8353 175.739 10.6353C176.021 10.5412 176.562 10.4941 177.067 10.5177C178.102 10.5647 178.936 10.9412 179.688 11.7059L180.205 12.2353H176.938H173.683L173.93 11.8824Z" fill="url(#paint1_linear_1679_12989)"/>
<defs>
<linearGradient id="paint0_linear_1679_12989" x1="-108.208" y1="14" x2="185" y2="14.0207" gradientUnits="userSpaceOnUse">
<stop stop-color="#0E092D"/>
<stop offset="1" stop-color="#4415F5"/>
</linearGradient>
<linearGradient id="paint1_linear_1679_12989" x1="-108.208" y1="14" x2="185" y2="14.0207" gradientUnits="userSpaceOnUse">
<stop stop-color="#0E092D"/>
<stop offset="1" stop-color="#4415F5"/>
</linearGradient>
</defs>
</svg>
