<svg viewBox="0 0 22 17" fill="currentColor" xmlns="http://www.w3.org/2000/svg">
<path d="M16.25 0L16.15 0.00699997C15.9701 0.0312051 15.8051 0.119846 15.6855 0.256479C15.566 0.393112 15.5001 0.568462 15.5 0.75V13.442L12.28 10.224L12.196 10.152C12.0438 10.0389 11.8544 9.98759 11.6659 10.0085C11.4774 10.0294 11.3039 10.1209 11.1801 10.2647C11.0564 10.4084 10.9918 10.5937 10.9992 10.7832C11.0066 10.9727 11.0855 11.1523 11.22 11.286L15.724 15.786L15.808 15.858C15.9525 15.9647 16.1304 16.016 16.3096 16.0026C16.4887 15.9892 16.657 15.912 16.784 15.785L21.281 11.285L21.353 11.201C21.46 11.0564 21.5115 10.8783 21.4981 10.6989C21.4847 10.5196 21.4073 10.351 21.28 10.224L21.196 10.152C21.0515 10.045 20.8733 9.99353 20.6939 10.0069C20.5146 10.0203 20.3461 10.0977 20.219 10.225L17 13.446V0.75L16.994 0.648C16.9694 0.468446 16.8805 0.303892 16.7439 0.184767C16.6073 0.0656429 16.4312 7.6429e-06 16.25 0ZM5.21401 0.22L0.720007 4.715L0.647007 4.799C0.540293 4.94347 0.488968 5.12144 0.502365 5.30055C0.515761 5.47966 0.592989 5.64801 0.720007 5.775L0.804007 5.848C0.948477 5.95471 1.12645 6.00604 1.30556 5.99264C1.48466 5.97925 1.65302 5.90202 1.78001 5.775L4.99701 2.557V15.255L5.00501 15.357C5.02966 15.5366 5.11849 15.7011 5.25508 15.8202C5.39166 15.9394 5.56677 16.005 5.74801 16.005L5.84901 15.998C6.02874 15.9736 6.19354 15.8848 6.31286 15.7482C6.43219 15.6116 6.49797 15.4364 6.49801 15.255L6.49701 2.559L9.72001 5.776L9.80401 5.848C9.95631 5.95971 10.1452 6.00985 10.3328 5.98838C10.5205 5.96691 10.6931 5.87543 10.8163 5.7322C10.9394 5.58897 11.004 5.40456 10.9971 5.2158C10.9902 5.02704 10.9123 4.84784 10.779 4.714L6.27501 0.22L6.19001 0.148C6.04554 0.0412859 5.86757 -0.0100386 5.68846 0.00335789C5.50935 0.0167544 5.341 0.0939825 5.21401 0.221V0.22Z" fill="currentColor"/>
</svg>
