<svg viewBox="0 0 20 20" fill="none" xmlns="http://www.w3.org/2000/svg">
<g clip-path="url(#clip0_37_3506)">
<path d="M10 7.01614C9.21023 7.02136 8.4543 7.3374 7.89583 7.89587C7.33737 8.45433 7.02133 9.21026 7.01611 10C7.01611 11.6332 8.36682 12.9839 10 12.9839C11.6322 12.9839 12.9839 11.6332 12.9839 10C12.9839 8.36784 11.6322 7.01614 10 7.01614Z" fill="currentColor"/>
<path d="M10 3.0376C2.408 3.0376 0.126318 9.61906 0.105431 9.6857L0 10L0.104436 10.3143C0.126318 10.3809 2.408 16.9624 10 16.9624C17.592 16.9624 19.8737 10.3809 19.8946 10.3143L20 10L19.8956 9.6857C19.8737 9.61906 17.592 3.0376 10 3.0376ZM10 14.9731C4.67774 14.9731 2.61587 11.1478 2.11657 10C2.61786 8.84822 4.68072 5.02686 10 5.02686C15.3223 5.02686 17.3841 8.8522 17.8834 10C17.3821 11.1518 15.3193 14.9731 10 14.9731Z" fill="currentColor"/>
<path d="M19 2.5L1 18.5" stroke="#D2D0DC" stroke-width="2" stroke-linecap="round"/>
</g>
<defs>
<clipPath id="clip0_37_3506">
<rect width="20" height="20" fill="white"/>
</clipPath>
</defs>
</svg>
