<svg viewBox="0 0 8 12" fill="currentColor" xmlns="http://www.w3.org/2000/svg">
<path d="M1.8871 11.7625L7.32258 6.44327C7.3871 6.37995 7.43269 6.31135 7.45935 6.23747C7.48645 6.16359 7.5 6.08443 7.5 6C7.5 5.91557 7.48645 5.83641 7.45935 5.76253C7.43269 5.68865 7.3871 5.62005 7.32258 5.55673L1.8871 0.221636C1.73656 0.0738786 1.54839 0 1.32258 0C1.09677 0 0.903226 0.0791557 0.741935 0.237467C0.580645 0.395778 0.5 0.580475 0.5 0.791557C0.5 1.00264 0.580645 1.18734 0.741935 1.34565L5.48387 6L0.741935 10.6544C0.591398 10.8021 0.516129 10.9841 0.516129 11.2002C0.516129 11.4168 0.596774 11.6042 0.758064 11.7625C0.919354 11.9208 1.10753 12 1.32258 12C1.53763 12 1.72581 11.9208 1.8871 11.7625Z" fill="currentColor"/>
</svg>
