<?xml version="1.0" standalone="no"?>
<!DOCTYPE svg PUBLIC "-//W3C//DTD SVG 20010904//EN"
 "http://www.w3.org/TR/2001/REC-SVG-20010904/DTD/svg10.dtd">
<svg version="1.0" xmlns="http://www.w3.org/2000/svg"
 width="700.000000pt" height="700.000000pt" viewBox="0 0 700.000000 700.000000"
 preserveAspectRatio="xMidYMid meet">
<metadata>
Created by potrace 1.14, written by Peter Selinger 2001-2017
</metadata>
<g transform="translate(0.000000,700.000000) scale(0.100000,-0.100000)"
fill="#000000" stroke="none">
<path d="M3280 6993 c-19 -1 -87 -8 -150 -14 -911 -86 -1788 -566 -2369 -1297
-707 -888 -940 -2076 -620 -3168 83 -287 236 -627 389 -872 157 -251 395 -535
609 -729 558 -504 1225 -804 1986 -893 155 -18 460 -24 620 -11 496 39 904
152 1330 366 216 109 340 185 528 326 714 536 1199 1330 1346 2204 37 219 46
336 46 595 0 258 -9 377 -46 593 -93 551 -318 1072 -658 1522 -666 880 -1709
1393 -2811 1383 -91 -1 -181 -3 -200 -5z m1708 -1930 l2 -363 -1490 0 -1490 0
0 358 c0 197 3 362 7 365 3 4 673 6 1487 5 l1481 -3 3 -362z m-1090 -2165 l-3
-1323 -395 0 -395 0 -3 1323 -2 1322 400 0 400 0 -2 -1322z"/>
</g>
</svg>
